<?xml version="1.0" encoding="UTF-8" standalone="no"?>
<!-- Created with Inkscape (http://www.inkscape.org/) -->

<svg
   xmlns:dc="http://purl.org/dc/elements/1.1/"
   xmlns:cc="http://creativecommons.org/ns#"
   xmlns:rdf="http://www.w3.org/1999/02/22-rdf-syntax-ns#"
   xmlns:svg="http://www.w3.org/2000/svg"
   xmlns="http://www.w3.org/2000/svg"
   xmlns:sodipodi="http://sodipodi.sourceforge.net/DTD/sodipodi-0.dtd"
   xmlns:inkscape="http://www.inkscape.org/namespaces/inkscape"
   width="600"
   height="600"
   id="svg2"
   version="1.1"
   inkscape:version="0.48.4 r9939"
   sodipodi:docname="Figur 6 De første FDA reference-arkitekturer.svg">
  <defs
     id="defs4">
    <inkscape:path-effect
       effect="spiro"
       id="path-effect3825"
       is_visible="true" />
    <inkscape:path-effect
       effect="spiro"
       id="path-effect3821"
       is_visible="true" />
    <inkscape:path-effect
       effect="spiro"
       id="path-effect3817"
       is_visible="true" />
    <inkscape:path-effect
       effect="spiro"
       id="path-effect3813"
       is_visible="true" />
    <inkscape:path-effect
       effect="spiro"
       id="path-effect3809"
       is_visible="true" />
    <inkscape:path-effect
       effect="spiro"
       id="path-effect3805"
       is_visible="true" />
    <inkscape:path-effect
       effect="spiro"
       id="path-effect3801"
       is_visible="true" />
    <inkscape:path-effect
       effect="skeletal"
       id="path-effect3797"
       is_visible="true"
       pattern="M 0,5 C 0,2.24 2.24,0 5,0 7.76,0 10,2.24 10,5 10,7.76 7.76,10 5,10 2.24,10 0,7.76 0,5 z"
       copytype="single_stretched"
       prop_scale="1"
       scale_y_rel="false"
       spacing="0"
       normal_offset="0"
       tang_offset="0"
       prop_units="false"
       vertical_pattern="false"
       fuse_tolerance="0" />
    <inkscape:path-effect
       effect="spiro"
       id="path-effect3795"
       is_visible="true" />
    <inkscape:path-effect
       effect="spiro"
       id="path-effect3791"
       is_visible="true" />
    <inkscape:path-effect
       effect="skeletal"
       id="path-effect3018"
       is_visible="true"
       pattern="m -434.36559,42.375644 c 0,-2.76 2.24,-5 5,-5 2.76,0 5,2.24 5,5 0,2.76 -2.24,5 -5,5 -2.76,0 -5,-2.24 -5,-5 z"
       copytype="single_stretched"
       prop_scale="1"
       scale_y_rel="false"
       spacing="0"
       normal_offset="0"
       tang_offset="0"
       prop_units="false"
       vertical_pattern="false"
       fuse_tolerance="0" />
    <inkscape:path-effect
       effect="skeletal"
       id="path-effect3014"
       is_visible="true"
       pattern="M 0,5 C 0,2.24 2.24,0 5,0 7.76,0 10,2.24 10,5 10,7.76 7.76,10 5,10 2.24,10 0,7.76 0,5 z"
       copytype="single_stretched"
       prop_scale="1"
       scale_y_rel="false"
       spacing="0"
       normal_offset="0"
       tang_offset="0"
       prop_units="false"
       vertical_pattern="false"
       fuse_tolerance="0" />
    <inkscape:path-effect
       effect="spiro"
       id="path-effect2991"
       is_visible="true" />
  </defs>
  <sodipodi:namedview
     id="base"
     pagecolor="#ffffff"
     bordercolor="#666666"
     borderopacity="1.0"
     inkscape:pageopacity="0.0"
     inkscape:pageshadow="2"
     inkscape:zoom="0.7"
     inkscape:cx="186.90121"
     inkscape:cy="730.51616"
     inkscape:document-units="px"
     inkscape:current-layer="layer1"
     showgrid="false"
     inkscape:window-width="1280"
     inkscape:window-height="657"
     inkscape:window-x="-8"
     inkscape:window-y="-8"
     inkscape:window-maximized="1" />
  <metadata
     id="metadata7">
    <rdf:RDF>
      <cc:Work
         rdf:about="">
        <dc:format>image/svg+xml</dc:format>
        <dc:type
           rdf:resource="http://purl.org/dc/dcmitype/StillImage" />
        <dc:title></dc:title>
      </cc:Work>
    </rdf:RDF>
  </metadata>
  <g
     inkscape:label="Layer 1"
     inkscape:groupmode="layer"
     id="layer1">
    <path
       style="fill:#6d9908;fill-opacity:1;stroke:#000000;stroke-width:1px;stroke-linecap:butt;stroke-linejoin:miter;stroke-opacity:1"
       d="m 83.54318,80.94206 c 17.79898,-1.91621 38.4458,0.84644 56.02456,0.52863 6.3066,-0.11401 10.867,0.0622 16.4092,-0.42044 2.52931,-0.22025 5.67985,-0.027 8.01079,-2.12849 12.04076,-10.85567 2.88947,-13.17513 -6.76469,-32.79406 -4.8332,-9.82192 7.0734,-25.50929 20.18967,-28.87186 10.66215,-2.73342 22.91161,1.67037 28.35893,7.11769 19.9399,19.93991 -13.72065,42.84788 -4.04061,52.52792 12.64207,12.642074 56.01865,2.17831 76.63074,5.19263 6.39107,0.93463 0.73767,49.51116 3.40591,54.84762 5.36056,10.72113 -5.10274,31.71709 6.83647,36.9344 15.69953,6.86054 21.17909,-12.04944 46.13671,-12.17732 18.53625,-0.095 19.8345,34.08937 7.40137,46.5225 -17.71633,17.71633 -39.02946,-19.80704 -50.50762,-8.08122 -28.12689,28.73375 3.21379,61.40193 -13.37219,71.32537 -5.16801,3.09204 -18.74783,2.38482 -30.56944,1.40562 -7.04304,-0.58338 -29.80029,0.91962 -35.35535,0.50507 -30.72371,-2.29278 4.18302,-10.09832 -0.65301,-53.68602 -0.76775,-6.91987 -16.66786,-15.92715 -21.94112,-16.38722 -36.13573,-3.15269 -41.55028,23.04708 -36.62704,42.19691 2.55276,9.92943 9.55198,18.911 12.24907,22.82557 2.52336,3.6624 -6.32806,10.91726 -50.72706,3.95729 -2.81343,-0.44103 -29.72217,-0.0491 -30.23024,-3.00893 -2.19025,-12.75943 -4.49099,-45.85521 -0.86505,-58.02198 1.05595,-3.5432 4.80459,-8.84114 8.58384,-8.8532 3.21057,-0.0103 4.40209,0.70146 7.00616,3.37631 1.62727,1.6715 4.11397,5.34097 7.04082,6.28471 19.35566,6.24103 46.90771,6.48713 42.01895,-38.18346 -1.14769,-10.48689 -26.52488,-26.50813 -38.3858,-14.64721 -3.83917,3.83917 -21.54809,14.05928 -23.73859,9.09137 -9.81091,-22.25054 -1.33327,-59.9648 -2.52538,-87.3782 z"
       id="path3827"
       inkscape:connector-curvature="0"
       sodipodi:nodetypes="csssssssssssssssssssssssssssssc" />
    <path
       style="fill:#0492d2;fill-opacity:1;stroke:#000000;stroke-width:1px;stroke-linecap:butt;stroke-linejoin:miter;stroke-opacity:1"
       d="m 294.86812,81.021938 c 22.80712,0.8783 -18.88622,-0.006 69.40466,0.76506 4.7158,0.0412 12.95888,1.51108 15.79478,4.34698 13.03772,13.037716 -34.57274,23.087752 -6.40754,51.456502 25.99889,26.18678 55.23649,5.20117 52.72997,-15.49427 -1.88749,-15.58431 -16.17378,-31.520592 -15.18101,-32.513352 9.79623,-9.79626 67.83719,-7.33492 83.97572,-7.54025 12.0973,-0.15392 -4.71216,70.256592 7.77484,84.842292 17.66206,20.63053 36.89421,-42.34568 63.39451,14.37673 3.67372,13.40002 -10.81323,31.0623 -30.63777,31.1578 -6.30765,0.0304 -16.36112,-12.34193 -21.43008,-12.56805 -11.50334,-0.51316 -3.74805,-0.58064 -11.08771,0.0263 -10.36599,7.00827 -0.0601,63.65333 -3.88744,69.67513 -10.8319,6.55602 -46.89841,3.6215 -71.01959,6.0697 -13.70436,1.39093 -23.79474,6.6961 -22.60737,11.03561 1.63696,4.83185 9.25259,15.96831 10.57503,20.32156 8.49802,27.97396 -5.62221,36.176 -22.7425,33.60453 -17.51623,-2.63094 -34.66347,-12.92163 -20.55232,-30.01446 7.22952,-12.14031 9.07643,-33.40278 4.43626,-35.58936 -29.57357,-7.06845 -79.15739,0.0948 -83.5426,-3.29215 -0.87324,-3.86706 -0.0643,-61.45064 3.14251,-64.63181 4.60435,-4.56759 22.40781,22.42008 47.19181,6.71392 5.0935,-3.22786 16.59568,-19.935 12.12183,-37.07976 -9.52555,-30.65378 -25.3129,-25.499 -38.28979,-18.99485 -8.17598,4.0979 -14.89264,11.09892 -23.26953,11.87526 -6.09287,-22.65445 -3.44338,-74.322216 0.11333,-88.549042 z"
       id="path3840"
       inkscape:connector-curvature="0"
       sodipodi:nodetypes="cssssssscssccscsscccsscsccc" />
    <path
       style="fill:#f08a1e;fill-opacity:1;stroke:#000000;stroke-width:1px;stroke-linecap:butt;stroke-linejoin:miter;stroke-opacity:1"
       d="m 84.55334,280.95226 c 26.13872,-5.1823 78.52738,13.11729 89.90357,-8.08122 4.12937,-7.69471 -9.56591,-4.72901 -15.15229,-40.4061 -1.54277,-9.85282 11.29714,-26.569 27.7792,-22.22336 47.72597,12.58337 -7.8895,58.11411 10.6066,64.64977 21.71543,7.67322 71.21626,-0.0131 83.5468,7.6628 4.18211,2.60341 3.55023,9.38113 3.75507,17.45183 0.37525,14.78436 -1.48967,33.90758 -1.48967,39.65769 0,8.86035 1.25564,19.94309 0.68637,28.54279 -0.33961,5.13028 0.0515,9.37687 -4.67621,11.74075 -3.98499,1.99249 -6.01633,-0.18008 -8.38289,-2.06521 -3.54566,-2.82437 -6.95471,-6.78168 -11.69182,-9.36375 -9.49796,-5.17711 -24.65848,-2.4267 -37.50399,10.41881 -13.74398,13.74398 -2.14828,41.71031 15.15229,47.47717 7.45723,2.48574 22.23918,0.99173 29.46774,-2.62256 3.62656,-1.81328 6.9857,-8.14866 10.87708,-7.00979 6.67661,1.95401 5.6425,30.19911 5.6425,44.98769 0,5.12848 1.85571,33.1517 -1.89775,35.12074 -6.61544,3.47041 -66.74641,2.57657 -74.39415,0.2346 0.42978,-1.81993 -4.83445,-4.98838 -4.37142,-6.65414 1.37719,-4.95444 4.9765,-9.13559 7.12318,-12.60926 13.85759,-22.42392 12.89597,-33.47931 -16.89389,-44.37621 -46.56582,-5.411 -35.83993,43.74286 -26.54445,49.34191 5.90506,3.55686 5.06358,13.83773 4.32109,13.28754 -26.9814,4.76772 -54.77278,3.40049 -85.16442,2.993 -3.75032,-25.29065 7.10406,-114.34941 -19.1376,-86.13862 -8.54719,8.15725 -26.02041,17.71807 -45.077996,-1.33953 -12.5693301,-12.56933 3.18872,-34.18073 8.30529,-40.89632 10.121576,-13.28471 45.858556,10.97977 47.130546,12.24439 11.91772,11.84872 4.38047,-92.01296 8.08122,-102.02541 z"
       id="path3842"
       inkscape:connector-curvature="0"
       sodipodi:nodetypes="cssssssssssssssssscsscscccsssc" />
    <path
       style="fill:#c5026a;fill-opacity:1;stroke:#000000;stroke-width:1px;stroke-linecap:butt;stroke-linejoin:miter;stroke-opacity:1"
       d="m 296.29669,280.44041 c 161.96398,-17.26815 12.75806,48.94458 86.87312,64.64977 72.51788,15.36674 34.96549,-44.90536 31.31473,-60.10408 -0.51797,-2.1564 40.17277,-6.955 48.48732,-4.54569 7.04002,2.03999 34.8579,-4.70927 36.36549,2.02031 2.29894,10.26197 0.48828,67.47882 1.51523,77.78174 0.24114,61.32263 -39.68051,-42.57881 -67.17514,33.84012 2.24711,23.5197 17.96264,37.62251 34.1343,31.82881 5.24891,-1.88048 17.04307,-13.38639 21.50265,-13.77894 18.81575,-0.95814 10.66492,18.73711 10.76542,24.2847 0.92391,50.99751 0.22001,57.17504 0.72588,59.23188 2.12246,8.62989 -54.82137,-9.02257 -86.32115,5.50972 -14.7357,19.49718 24.79513,19.97091 8.08122,50.00254 -3.997,7.18184 -29.38767,20.07888 -44.44671,9.09138 -18.24647,-13.31313 12.709,-57.88012 5.05076,-60.60916 -42.31006,8.21774 -89.57578,0.39681 -90.26662,-3.51361 -3.97009,-22.47238 5.83551,-71.69573 -11.69092,-85.63917 -6.00229,-4.77522 -19.11014,10.3186 -30.76918,10.80667 -13.22519,0.0174 -34.91096,-14.79032 -26.37231,-30.75035 0.41069,-7.53262 14.2815,-14.83488 22.07785,-15.30258 17.09036,-1.02525 24.82335,23.17968 42.57191,6.71627 9.97194,-7.03673 1.35657,-78.48118 7.57615,-101.52033 z"
       id="path3848"
       inkscape:connector-curvature="0"
       sodipodi:nodetypes="cssssccscsscsscssccscc" />
    <text
       xml:space="preserve"
       style="font-size:40px;font-style:normal;font-weight:bold;text-align:center;line-height:125%;letter-spacing:0px;word-spacing:0px;text-anchor:middle;fill:#000000;fill-opacity:1;stroke:none;font-family:Sans;-inkscape-font-specification:Sans Bold"
       x="184.55846"
       y="121.34818"
       id="text3850"
       sodipodi:linespacing="125%"><tspan
         sodipodi:role="line"
         id="tspan3852"
         x="184.55846"
         y="121.34818"
         style="font-size:27px;font-family:Paralucent Medium;-inkscape-font-specification:Paralucent Medium">Selvbetjening</tspan></text>
    <text
       sodipodi:linespacing="125%"
       id="text3854"
       y="181.95734"
       x="424.97479"
       style="font-size:40px;font-style:normal;font-weight:bold;text-align:center;line-height:125%;letter-spacing:0px;word-spacing:0px;text-anchor:middle;fill:#000000;fill-opacity:1;stroke:none;font-family:Sans;-inkscape-font-specification:Sans Bold"
       xml:space="preserve"><tspan
         style="font-size:27px;font-family:Paralucent Medium;-inkscape-font-specification:Paralucent Medium"
         y="181.95734"
         x="428.37616"
         id="tspan3856"
         sodipodi:role="line">Sags- og </tspan><tspan
         style="font-size:27px;font-family:Paralucent Medium;-inkscape-font-specification:Paralucent Medium"
         y="215.70734"
         x="424.97479"
         sodipodi:role="line"
         id="tspan3860">ydelses-</tspan><tspan
         style="font-size:27px;font-family:Paralucent Medium;-inkscape-font-specification:Paralucent Medium"
         y="249.45734"
         x="424.97479"
         sodipodi:role="line"
         id="tspan3858">overblik</tspan></text>
    <text
       xml:space="preserve"
       style="font-size:40px;font-style:normal;font-weight:bold;text-align:center;line-height:125%;letter-spacing:0px;word-spacing:0px;text-anchor:middle;fill:#000000;fill-opacity:1;stroke:none;font-family:Sans;-inkscape-font-specification:Sans Bold"
       x="182.53818"
       y="317.31775"
       id="text3862"
       sodipodi:linespacing="125%"><tspan
         id="tspan3868"
         sodipodi:role="line"
         x="182.53818"
         y="317.31775"
         style="font-size:27px;font-family:Paralucent Medium;-inkscape-font-specification:Paralucent Medium">Deling af data</tspan><tspan
         sodipodi:role="line"
         x="182.53818"
         y="351.06775"
         style="font-size:27px;font-family:Paralucent Medium;-inkscape-font-specification:Paralucent Medium"
         id="tspan3875">og dokumenter</tspan></text>
    <text
       sodipodi:linespacing="125%"
       id="text3877"
       y="468.84064"
       x="396.69052"
       style="font-size:40px;font-style:normal;font-weight:bold;text-align:center;line-height:125%;letter-spacing:0px;word-spacing:0px;text-anchor:middle;fill:#000000;fill-opacity:1;stroke:none;font-family:Sans;-inkscape-font-specification:Sans Bold"
       xml:space="preserve"><tspan
         id="tspan3881"
         style="font-size:27px;font-family:Paralucent Medium;-inkscape-font-specification:Paralucent Medium"
         y="468.84064"
         x="396.69052"
         sodipodi:role="line">Brugerstyring</tspan></text>
  </g>
</svg>
